PathFileType	4	(X/Y/Z)	TRC_missing_Z7.trc
DataRate	CameraRate	NumFrames	NumMarkers	Units	OrigDataRate	OrigDataStartFrame	OrigNumFrames
100.0	100.0	10	37	mm	100.0	1957	2609	
Frame#	Time	T10			C7			CLAV			RACR1			LACR1			RPSI			LPSI			RASI			LASI			LTH2			LTH3			LTH1			RTH2			RTH3			RTH1			RLFC			RMFC			RTB1			RTB3			RTB2			LLFC			LMFC			LTB1			LTB3			LTB2			LLMAL			LCAL			LMMAL			RLMAL			RMMAL			RCAL			RMT5			RMT1			RToe			LMT5			LMT1			LToe			
		X1	Y1	Z1	X2	Y2	Z2	X3	Y3	Z3	X4	Y4	Z4	X5	Y5	Z5	X6	Y6	Z6	X7	Y7	X8	Y8	Z8	X9	Y9	Z9	X10	Y10	Z10	X11	Y11	Z11	X12	Y12	Z12	X13	Y13	Z13	X14	Y14	Z14	X15	Y15	Z15	X16	Y16	Z16	X17	Y17	Z17	X18	Y18	Z18	X19	Y19	Z19	X20	Y20	Z20	X21	Y21	Z21	X22	Y22	Z22	X23	Y23	Z23	X24	Y24	Z24	X25	Y25	Z25	X26	Y26	Z26	X27	Y27	Z27	X28	Y28	Z28	X29	Y29	Z29	X30	Y30	Z30	X31	Y31	Z31	X32	Y32	Z32	X33	Y33	Z33	X34	Y34	Z34	X35	Y35	Z35	X36	Y36	Z36	X37	Y37	Z37	
1957	19.56	742.76318	1226.3387	-413.12094	734.92102	1481.7939	-287.224	739.55151	1323.5905	-191.38475	575.36938	1430.2068	-266.33347	913.78253	1422.6287	-268.50024	690.65552	1007.0172	-490.44873	778.23425	1017.0239	-484.23578	602.89337	967.49945	-265.79602	855.64355	975.28455	-247.33804	922.13953	766.06732	-312.54346	885.44666	697.66058	-283.75281	883.45142	844.23157	-257.28745	572.00391	723.4502	-202.25366	538.33783	780.08142	-259.2338	610.72235	832.07202	-229.18988	553.21088	506.83749	-225.56525				591.01538	394.48822	-218.4912	577.17395	339.31345	-280.03821	602.22479	290.37338	-295.34711	854.37122	488.50882	-368.59662				797.13062	372.69653	-354.73325	823.20789	309.41299	-392.42297	778.91559	259.92816	-398.9967	793.13776	81.829163	-506.92468	746.76624	46.28516	-567.86597				607.96558	148.59395	-435.75223				663.69897	134.05307	-500.64044	591.50006	70.070778	-356.6315	660.01526	67.68483	-320.47501				814.94995	39.331226	-392.90897	741.52521	52.647369	-363.03876			
1958	19.57	743.04956	1226.1797	-414.51328	735.23383	1481.4827	-288.35046	739.54004	1323.1696	-192.65392	575.59247	1429.9935	-268.0108	913.96094	1422.1592	-269.14783	689.94189	1006.8115	-492.01581	777.50769	1016.9117	-485.98178	603.09662	967.45026	-267.08548	855.90973	974.8667	-249.31448	921.99011	765.7937	-316.17761	885.91309	697.5929	-286.70892	883.54108	843.51953	-260.18646	572.76611	725.30573	-201.31956	538.51807	781.12018	-258.78299	611.22772	833.28809	-229.83221	554.11456	508.34573	-221.3266				591.84583	396.1478	-211.00812	577.93524	339.19534	-270.67621	602.8681	289.76163	-284.46335	854.54578	488.61963	-375.29819				797.36694	372.69843	-362.0087	823.38666	309.578	-399.94897	779.05426	260.08328	-406.67075	793.03253	82.440437	-515.19159	746.60449	47.219837	-576.22723				608.46741	143.4416	-420.06125				664.10626	126.26113	-484.42566	591.81061	68.326904	-337.83057	660.20471	67.152069	-301.57025				814.87524	39.31332	-401.40363	741.50085	52.663727	-371.49533			
1959	19.58	743.26257	1225.9713	-415.89352	735.48352	1481.1283	-289.47586	739.50165	1322.7122	-193.91348	575.76337	1429.7311	-269.65271	914.08386	1421.6532	-269.83673	689.16583	1006.5798	-493.55261	776.71808	1016.7676	-487.702	603.2392	967.34308	-268.35013	856.11462	974.40222	-251.27708	921.78583	765.49969	-319.81805	886.59381	697.66119	-289.61859	883.57397	842.78339	-263.08273	573.54297	726.98346	-200.57765	538.7019	782.01562	-258.44385	611.70209	834.36938	-230.52573	555.10071	509.72504	-217.49152				592.76385	397.73517	-203.90514	578.76758	339.0162	-261.61523	603.57648	289.11896	-273.8306	854.66528	488.75159	-381.93384				797.55334	372.71396	-369.2312	823.52924	309.76709	-407.42465	779.16876	260.26144	-414.30768	792.92664	83.090508	-523.44208	746.44312	48.207428	-584.5838				609.00555	138.30791	-404.38336				664.52399	118.54913	-468.14166	592.27051	66.612083	-319.21457	660.56317	66.688828	-282.95197				814.79767	39.303627	-409.89877	741.47461	52.67485	-379.95923			
1960	19.59	743.40021	1225.7156	-417.25299	735.66736	1480.7349	-290.5939	739.43335	1322.2223	-195.15523	575.87848	1429.422	-271.24976	914.14905	1421.114	-270.56088	688.33234	1006.3226	-495.04922	775.8703	1016.5943	-489.38498	603.32007	967.17755	-269.58151	856.25757	973.89569	-253.21278	921.52899	765.18713	-323.4519	887.5343	697.88025	-292.57889	883.55145	842.02478	-265.9642	574.31927	728.47235	-200.01862	538.8819	782.75989	-258.21408	612.13684	835.31146	-231.25842	556.16132	510.96045	-214.04967				593.76868	399.23566	-197.19669	579.67017	338.77606	-252.88519	604.35425	288.45273	-263.49316	854.73065	488.90411	-388.49756				797.69067	372.74231	-376.39661	823.63696	309.97983	-414.84662	779.26031	260.46359	-421.90286	792.82086	83.779343	-531.67566	746.28259	49.248077	-592.93683				609.58441	133.24399	-388.80191				664.9563	110.98228	-451.88483	592.87897	64.957733	-300.86865	661.08966	66.307747	-264.70511				814.71808	39.301586	-418.39185	741.4472	52.680321	-388.42792			
1961	19.6	743.46063	1225.4152	-418.58347	735.78229	1480.3058	-291.69846	739.33167	1321.7036	-196.37123	575.93427	1429.069	-272.79294	914.15399	1420.5461	-271.31427	687.44598	1006.0412	-496.49591	774.96906	1016.3943	-491.01971	603.33875	966.95435	-270.77133	856.33801	973.35144	-255.10907	921.22266	764.85773	-327.0654	888.76831	698.258	-295.7016	883.47528	841.24548	-268.81873	575.08234	729.76379	-199.63104	539.05212	783.34741	-258.08914	612.52521	836.11157	-232.01755	557.28888	512.03925	-210.98814				594.85925	400.63495	-190.89586	580.64185	338.47452	-244.51648	605.20575	287.76855	-253.49733	854.74298	489.07605	-394.98206				797.77997	372.78201	-383.49966	823.71204	310.21542	-422.21103	779.33044	260.69055	-429.45071	792.71649	84.507187	-539.89227	746.12427	50.342197	-601.28802				610.2085	128.29622	-373.40967				665.40839	103.62097	-435.76324	593.6355	63.388756	-282.88464	661.784	66.014816	-246.91931				814.63757	39.306206	-426.8808	741.41956	52.679893	-396.89877			
1962	19.61	743.44208	1225.0725	-419.87698	735.82562	1479.8451	-292.78369	739.19299	1321.1609	-197.55385	575.92706	1428.6746	-274.27356	914.0965	1419.9545	-272.09076	686.51129	1005.7365	-497.8833	774.01868	1016.1703	-492.59601	603.2951	966.67462	-271.91125	856.35583	972.77411	-256.95425	920.87	764.51324	-330.64423	890.30731	698.79071	-299.10049	883.34692	840.44714	-271.63394	575.82147	730.85217	-199.4014	539.2077	783.77448	-258.06216	612.86139	836.76831	-232.78989	558.47565	512.95123	-208.2921				596.03424	401.9191	-185.01437	581.68146	338.11072	-236.53995	606.13495	287.07019	-243.89122	854.70361	489.26566	-401.37845				797.82281	372.83133	-390.53384	823.75696	310.47302	-429.51303	779.38068	260.94275	-436.94522	792.61511	85.27478	-548.0929	745.96973	51.490692	-609.63983				610.8833	123.50585	-358.30804				665.88574	96.520203	-419.89563	594.53973	61.923233	-265.36172	662.6463	65.809296	-229.68896				814.55774	39.316032	-435.36389	741.39282	52.673527	-405.36893			
1963	19.62	743.34296	1224.6908	-421.12625	735.79486	1479.3572	-293.84375	739.01404	1320.5984	-198.69591	575.85345	1428.2423	-275.68378	913.97424	1419.3433	-272.88431	685.53198	1005.4102	-499.20267	773.02344	1015.9241	-494.10403	603.18915	966.34045	-272.99335	856.31128	972.1684	-258.7374	920.47455	764.15576	-334.17358	892.12811	699.45905	-302.87329	883.16785	839.63177	-274.39737	576.52869	731.73462	-199.31418	539.34479	784.03986	-258.12384	613.14166	837.2821	-233.56183	559.71399	513.6886	-205.94493				597.29175	403.0751	-179.56288	582.78754	337.68359	-228.98674	607.14514	286.35938	-234.72423	854.61414	489.47049	-407.67593				797.82141	372.88773	-397.49112	823.77435	310.75177	-436.74695	779.41302	261.22058	-444.37949	792.51855	86.083344	-556.27905	745.82104	52.695225	-617.99493				611.61377	118.90856	-343.60632				666.39459	89.729111	-404.40979	595.59033	60.572315	-248.40628	663.67639	65.683701	-213.11343				814.47992	39.329147	-443.84006	741.36865	52.661362	-413.83557			
1964	19.63	743.16217	1224.274	-422.32419	735.68756	1478.8466	-294.87323	738.79114	1320.0205	-199.79079	575.71027	1427.7758	-277.01624	913.7851	1418.7177	-273.68893	684.51147	1005.0643	-500.44577	771.98688	1015.6581	-495.53497	603.02173	965.95502	-274.00992	856.20465	971.53906	-260.44836	920.03979	763.78699	-337.63892	894.15717	700.22131	-307.0788	882.93976	838.80164	-277.0965	577.19849	732.41095	-199.35208	539.46136	784.14453	-258.2626	613.36371	837.65479	-234.31952	560.99634	514.24615	-203.92897				598.62952	404.09076	-174.55084	583.95801	337.1918	-221.88786	608.23853	285.63614	-226.04634	854.47681	489.68741	-413.86151				797.77832	372.9483	-404.36176	823.76752	311.05051	-443.90576	779.43024	261.5238	-451.74564	792.42938	86.934906	-564.45233	745.68097	53.958622	-626.3559				612.40466	114.53419	-329.41962				666.94055	83.290489	-389.44055	596.78467	59.340572	-232.13104	664.87299	65.624413	-197.29581				814.40607	39.343159	-452.30902	741.34851	52.643658	-422.29626			
1965	19.64	742.89862	1223.8258	-423.46454	735.50177	1478.3182	-295.86713	738.521	1319.4327	-200.83238	575.49438	1427.2783	-278.26425	913.52716	1418.083	-274.49875	683.45288	1004.7008	-501.60504	770.91241	1015.3745	-496.88089	602.79364	965.52173	-274.95355	856.03668	970.89117	-262.07834	919.56927	763.40875	-341.0256	896.26251	701.01294	-311.71609	882.66394	837.95917	-279.71878	577.82843	732.88361	-199.49635	539.5567	784.09186	-258.46466	613.5271	837.88953	-235.04919	562.31519	514.6214	-202.22586				600.04413	404.9549	-169.98676	585.19055	336.63376	-215.2739	609.41602	284.89865	-217.90739	854.29413	489.91248	-419.91992				797.69727	373.00943	-411.13385	823.74048	311.36804	-450.98108	779.43512	261.85214	-459.035	792.3504	87.832329	-572.61456	745.55255	55.285202	-634.72504				613.2597	110.40665	-315.86703				667.52917	77.24044	-375.12659	598.11774	58.226608	-216.65356	666.23334	65.612411	-182.34154				814.33746	39.355221	-460.77142	741.33429	52.620674	-430.74893			
1966	19.65	742.55212	1223.3506	-424.54163	735.23584	1477.777	-296.82068	738.20068	1318.8397	-201.81517	575.20355	1426.7545	-279.42212	913.19897	1417.4445	-275.30814	682.35858	1004.3225	-502.67368	769.80286	1015.075	-498.1347	602.50598	965.04559	-275.81744	855.80835	970.22949	-263.61938	919.06598	763.02307	-344.31927	898.27557	701.75818	-316.72037	882.34192	837.10718	-282.25189	578.41815	733.15771	-199.72713	539.63092	783.88757	-258.71439	613.63318	837.99139	-235.73723	563.66284	514.81378	-200.81696				601.53113	405.65781	-165.87782	586.48132	336.00806	-209.17433	610.67682	284.14359	-210.35611	854.0694	490.14108	-425.8335				797.58264	373.06717	-417.7937	823.69727	311.70334	-457.96277	779.43103	262.2048	-466.23776	792.2854	88.779564	-580.76672	745.43927	56.681202	-643.10358				614.1814	106.54397	-303.06906				668.16431	71.608025	-361.6077	599.58197	57.223839	-202.09369	667.75171	65.624466	-168.35609				814.2757	39.362064	-469.229	741.32739	52.592598	-439.1926			
